<svg width="20" height="20" viewBox="0 0 20 20" fill="none" xmlns="http://www.w3.org/2000/svg">
<path d="M7.28814 16.2028C7.28814 17.1795 7.3032 17.723 7.3032 18C7.3032 18 8.11676 19 10.3164 19C12.516 19 13.2994 18 13.2994 18C13.2994 17.6064 13.3145 16.7276 13.3145 15.1679C13.3145 14.0746 12.9379 13.3749 12.5009 13.0105C15.1827 12.7189 18 11.7277 18 7.25264C18 5.96988 17.533 4.93493 16.7646 4.11863C16.8851 3.82709 17.307 2.63179 16.6441 1.02834C16.6441 1.02834 15.6347 0.707655 13.3296 2.22364C12.3653 1.96126 11.3409 1.83007 10.3164 1.83007C9.2919 1.83007 8.26742 1.96126 7.3032 2.22364C4.99812 0.722232 3.9887 1.02834 3.9887 1.02834C3.3258 2.63179 3.74765 3.82709 3.86817 4.11863C3.09981 4.93493 2.63277 5.98446 2.63277 7.25264C2.63277 11.7131 5.43503 12.7189 8.11676 13.0105C7.77025 13.302 7.40866 14.0746 7.3032 14.8326L7.28814 16.2028ZM7.28814 16.2028C4.25989 16.7421 3.47646 15.4885 3.2354 14.8326C3.09981 14.4973 2.51224 13.4624 2 13.1854" stroke="black" stroke-width="1.5" stroke-linecap="round" stroke-linejoin="round"/>
</svg>
